PathFileType	4	(X/Y/Z)	0_coords_data.trc
DataRate	CameraRate	NumFrames	NumMarkers	Units	OrigDataRate	OrigDataStartFrame	OrigNumFrames
30.0	30.0	9	21	m	30.0	61	71
Frame#	Time	THUMB_TIP	THUMB_IP	THUMB_MCP	THUMB_CMC	INDEX_TIP	INDEX_DIP	INDEX_PIP	INDEX_MCP	MIDDLE_TIP	MIDDLE_DIP	MIDDLE_PIP	MIDDLE_MCP	RING_TIP	RING_DIP	RING_PIP	RING_MCP	PINKY_TIP	PINKY_DIP	PINKY_PIP	PINKY_MCP	WRIST
X1	Y1	Z1	X2	Y2	Z2	X3	Y3	Z3	X4	Y4	Z4	X5	Y5	Z5	X6	Y6	Z6	X7	Y7	Z7	X8	Y8	Z8	X9	Y9	Z9	X10	Y10	Z10	X11	Y11	Z11	X12	Y12	Z12	X13	Y13	Z13	X14	Y14	Z14	X15	Y15	Z15	X16	Y16	Z16	X17	Y17	Z17	X18	Y18	Z18	X19	Y19	Z19	X20	Y20	Z20	X21	Y21	Z21
60	2.0	0.04390810012817383	-0.07823259735107421	0.9519320068359375	0.02950239944458008	-0.06699469757080079	0.9750850219726562	0.013169599533081054	-0.0676167984008789	1.0056699829101563	0.000282640010118484	-0.038269798278808595	1.02352001953125	0.039512699127197265	-0.05331790161132813	0.903833984375	0.021370100021362304	-0.056589599609375	0.9188909912109375	0.00208882999420166	-0.059262001037597656	0.9369660034179688	-0.02832360076904297	-0.06105059814453125	0.9690269775390625	0.04389749908447266	-0.031029600143432617	0.8917659912109375	0.02551219940185547	-0.03257440185546875	0.9093779907226562	0.0017791199684143062	-0.03420489883422852	0.9305850219726562	-0.031413200378417966	-0.0352239990234375	0.9636539916992187	0.042161399841308594	0.00043718799948692304	0.8906900024414063	0.024692899703979494	-0.0018654600381851191	0.9087379760742188	0.0025724499225616452	-0.005346049785614013	0.9296119995117188	-0.02419879913330078	-0.01173859977722168	0.965260009765625	0.03757789993286133	0.021548500061035158	0.9218460083007812	0.01996209907531738	0.02189080047607422	0.9322839965820312	0.001651600003242492	0.020231700897216796	0.9444210205078125	-0.017316200256347655	0.011202199935913086	0.9702020263671876	-0.030521600723266602	-0.015667099952697754	1.0486800537109375
61	2.033333333333333	0.04418740081787109	-0.07755120086669921	0.9521510009765625	0.029585300445556642	-0.0665696029663086	0.9753189697265625	0.013321200370788574	-0.067377197265625	1.0060399780273437	0.000306567013263702	-0.03770420074462891	1.0235499877929688	0.03799039840698242	-0.05466830062866211	0.9025089721679688	0.01997410011291504	-0.057479900360107423	0.9180449829101562	0.001201210021972656	-0.059737499237060544	0.9367570190429687	-0.028233299255371092	-0.060819698333740235	0.9693109741210938	0.04380070114135742	-0.031390199661254885	0.891833984375	0.02545249938964844	-0.032768299102783206	0.9094739990234375	0.0018503700494766232	-0.034281898498535156	0.9306840209960937	-0.031260499954223635	-0.03501729965209961	0.9638410034179687	0.042619598388671874	0.000121723003685474	0.8909600219726562	0.024965599060058595	-0.002058130025863647	0.9089450073242188	0.002739979982376098	-0.005372710227966308	0.9297000122070312	-0.024243799209594727	-0.011550100326538085	0.9653880004882812	0.03801340103149414	0.02108880043029785	0.9219949951171875	0.020226699829101562	0.021814699172973632	0.9323679809570312	0.00186149001121521	0.02021220016479492	0.9443729858398437	-0.017372299194335937	0.011421600341796874	0.9701069946289063	-0.030442800521850586	-0.015225000381469726	1.04906005859375
62	2.066666666666667	0.04401810073852539	-0.0773052978515625	0.9522150268554688	0.029433900833129883	-0.06646369934082032	0.9755040283203125	0.013265600204467773	-0.0674280014038086	1.0061300048828126	0.00019802099466323804	-0.037566299438476565	1.0236799926757814	0.037423698425292966	-0.05562379837036133	0.9023419799804687	0.01944930076599121	-0.05818669891357422	0.9180430297851563	0.000842181980609893	-0.06015409851074219	0.9368489990234375	-0.028502500534057618	-0.060788700103759766	0.9695009765625	0.043729198455810546	-0.0321349983215332	0.8919329833984375	0.02532080078125	-0.03336479949951172	0.9094580078125	0.001667680025100708	-0.03463029861450195	0.930718994140625	-0.03140139961242676	-0.03505939865112305	0.9639710083007812	0.042823200225830076	-0.000829182982444763	0.8911010131835938	0.02518779945373535	-0.002804219961166382	0.90902001953125	0.002870800018310547	-0.005841650009155273	0.9297830200195313	-0.024497900009155273	-0.011591600418090821	0.9653770141601562	0.03826060104370117	0.020374500274658203	0.9220280151367187	0.020525999069213867	0.021248600006103516	0.93222802734375	0.0019719099998474123	0.0199419002532959	0.944208984375	-0.017373199462890624	0.01136489963531494	0.9700609741210937	-0.030400199890136717	-0.015060400009155274	1.04925
63	2.1	0.04385179901123047	-0.0772300033569336	0.9521799926757812	0.029236200332641602	-0.06655829620361328	0.9755650024414062	0.013015399932861329	-0.06751270294189453	1.0060599975585938	-3.7873901426792004e-05	-0.03763809967041016	1.0236900024414062	0.03870550155639649	-0.05478979873657226	0.9034979858398438	0.02031399917602539	-0.057614898681640624	0.9187509765625	0.001343479990959167	-0.05982040023803711	0.9370170288085937	-0.02871769905090332	-0.06077939987182617	0.9693569946289062	0.04431430053710937	-0.032127700805664065	0.8924580078125	0.02578190040588379	-0.033324298858642576	0.909905029296875	0.001863010048866272	-0.034584999084472656	0.9308309936523438	-0.03151169967651367	-0.0349625015258789	0.9638599853515625	0.043637798309326174	-0.0014027899503707881	0.8915989990234375	0.025823699951171876	-0.003168600082397461	0.9092880249023437	0.0031771500110626223	-0.006052780151367187	0.9298720092773437	-0.02437269973754883	-0.011527799606323242	0.9652310180664062	0.03869430160522461	0.020037799835205077	0.9225189819335937	0.0208661994934082	0.02104789924621582	0.9324190063476563	0.0022241699695587157	0.01998900032043457	0.9441290283203125	-0.016989599227905272	0.011419500350952148	0.9700079956054688	-0.030557100296020507	-0.015085000038146973	1.0490799560546875
64	2.1333333333333333	0.043702899932861326	-0.07696730041503906	0.951906982421875	0.029088399887084962	-0.06638069915771484	0.9753499755859375	0.012893799781799317	-0.06729070281982422	1.005989990234375	1.1453400366008001e-05	-0.037715301513671876	1.0234500122070314	0.03924169921875	-0.05419010162353516	0.9040640258789062	0.021040199279785156	-0.05713290023803711	0.9190059814453125	0.0017272100448608389	-0.059478801727294923	0.9370919799804688	-0.02866360092163086	-0.06069549942016601	0.969156982421875	0.044490299224853515	-0.03176759910583496	0.8924990234375	0.0259685001373291	-0.03300360107421875	0.9099320068359374	0.001986709952354431	-0.034350399017333985	0.9308209838867187	-0.031513099670410154	-0.03487279891967773	0.9636329956054688	0.04347829818725586	-0.0008328139781951901	0.8914190063476563	0.0256968994140625	-0.0027700400352478017	0.9091309814453125	0.0030684900283813473	-0.005755720138549805	0.9296580200195312	-0.024340599060058594	-0.011466899871826171	0.9651190185546875	0.03870819854736328	0.020065399169921876	0.9225830078125	0.02083919906616211	0.02120280075073242	0.93231201171875	0.00216018009185791	0.020129100799560547	0.9439730224609375	-0.01705970001220703	0.011506999969482422	0.9698150024414063	-0.03066740036010742	-0.014976699829101563	1.0486500244140624
65	2.1666666666666665	0.04370940017700195	-0.07658270263671875	0.9516339721679687	0.029076499938964842	-0.06603160095214844	0.9753759765625	0.012910099983215332	-0.06707029724121094	1.0058599853515624	-0.00015396900475025103	-0.03751950073242188	1.0236199951171876	0.03868519973754883	-0.054504199981689455	0.903552978515625	0.02042140007019043	-0.05742010116577148	0.9186859741210938	0.001318420052528381	-0.05971480178833008	0.9369019775390625	-0.028928600311279296	-0.060873199462890625	0.9691400146484375	0.04385800170898437	-0.031965599060058594	0.8920390014648437	0.02543899917602539	-0.033187400817871096	0.9095339965820313	0.00159168004989624	-0.03452069854736328	0.9305900268554688	-0.03179000091552735	-0.03502030181884765	0.9636179809570312	0.04260260009765625	-0.000769604980945587	0.8909409790039062	0.024919399261474608	-0.002719729900360107	0.9086400146484375	0.0024658300876617433	-0.005785560131072998	0.9293259887695312	-0.024629199981689453	-0.01154419994354248	0.9650170288085937	0.03795280075073242	0.019972900390625	0.9220460205078125	0.02013279914855957	0.02100469970703125	0.9318460083007812	0.001535840034484863	0.019976999282836912	0.9436610107421874	-0.01752470016479492	0.011423800468444824	0.9696859741210937	-0.030732500076293946	-0.014782400131225585	1.048719970703125
66	2.2	0.043243099212646484	-0.07666269683837891	0.9513489990234375	0.028599199295043946	-0.06624009704589844	0.97510400390625	0.012545499801635742	-0.06734549713134766	1.0055399780273437	-0.000286969006061553	-0.03773139953613281	1.0230900268554688	0.03848310089111328	-0.05456169891357422	0.9037239990234375	0.02013680076599121	-0.05748809814453125	0.9187899780273437	0.000933772027492523	-0.05984569931030274	0.9369149780273438	-0.029382600784301757	-0.060975101470947264	0.9690260009765626	0.0435531005859375	-0.03232659912109375	0.8920349731445313	0.025068000793457033	-0.03347510147094727	0.9095070190429687	0.001088760018348693	-0.03475799942016602	0.9304990234375	-0.03214770126342773	-0.035146598815917966	0.9634600219726562	0.042590099334716795	-0.001250499963760376	0.8910570068359375	0.024699800491333006	-0.0030858800411224362	0.90860302734375	0.001996490001678466	-0.005992939949035644	0.9292319946289063	-0.025103200912475587	-0.011726300239562988	0.9648150024414063	0.037778598785400394	0.019563299179077148	0.9219810180664062	0.01991189956665039	0.020764400482177734	0.9317520141601563	0.001298570036888122	0.019760000228881837	0.9435020141601562	-0.017999000549316406	0.011244199752807616	0.9696539916992187	-0.030899099349975586	-0.015162099838256836	1.0486500244140624
67	2.2333333333333334	0.042704200744628905	-0.07694039916992187	0.95102001953125	0.028246500015258788	-0.06642469787597656	0.9748590087890625	0.012112099647521973	-0.06752189636230468	1.0053300170898438	-0.0006851549744606011	-0.0379922981262207	1.023280029296875	0.0387494010925293	-0.05433369827270508	0.9042440185546875	0.02014780044555664	-0.057407798767089846	0.9189180297851562	0.000687781989574432	-0.05986270141601562	0.9368829956054687	-0.02981959915161133	-0.0611348991394043	0.9688419799804687	0.043719799041748046	-0.03233240127563477	0.89227099609375	0.025122800827026368	-0.03348929977416992	0.909656005859375	0.000987887978553772	-0.034772899627685545	0.9304860229492188	-0.03253329849243164	-0.035205501556396485	0.963301025390625	0.043048999786376954	-0.001437340021133422	0.8915650024414062	0.025025800704956056	-0.003208709955215454	0.9088359985351563	0.0021172900199890126	-0.006073440074920654	0.9292260131835938	-0.025386199951171876	-0.011794599533081054	0.9645850219726563	0.03785150146484375	0.019196300506591796	0.9222869873046875	0.01995870018005371	0.020595500946044922	0.9318380126953125	0.0012200900316238401	0.019640800476074218	0.9434760131835938	-0.01812100028991699	0.011183600425720214	0.9696929931640625	-0.031219999313354493	-0.015200599670410157	1.0481800537109376
68	2.2666666666666666	0.04241659927368164	-0.07643679809570313	0.95056298828125	0.028044300079345705	-0.06622730255126953	0.9744249877929687	0.012094799995422362	-0.06739959716796876	1.0049199829101563	-0.000871379017829895	-0.03794110107421875	1.0231500244140626	0.039159801483154295	-0.05418619918823242	0.9045159912109375	0.020351699829101563	-0.05726169967651367	0.918989013671875	0.000577143013477325	-0.05979759979248047	0.9367319946289062	-0.029920000076293946	-0.06113249969482422	0.9686240234375	0.04365700149536133	-0.032202098846435545	0.8922059936523438	0.02500779914855957	-0.03339799880981445	0.9095960083007812	0.000792273998260498	-0.03473149871826172	0.9303350219726563	-0.03265999984741211	-0.03526729965209961	0.9631430053710938	0.043027400970458984	-0.001654330015182495	0.891551025390625	0.02484950065612793	-0.003373759984970092	0.9087239990234375	0.0018838499784469601	-0.006163579940795898	0.9290819702148437	-0.025605300903320312	-0.01181980037689209	0.964573974609375	0.03783169937133789	0.019035699844360352	0.9222559814453125	0.019823999404907228	0.020490299224853514	0.9317210083007812	0.0010850900411605831	0.019510299682617187	0.9433309936523437	-0.018669700622558592	0.011109199523925781	0.9693560180664063	-0.031427000045776365	-0.01527589988708496	1.0484300537109374
